<svg width="30" height="30" viewBox="0 0 30 30" fill="none" xmlns="http://www.w3.org/2000/svg">
<path d="M15 30C23.2843 30 30 23.2843 30 15C30 6.71573 23.2843 0 15 0C6.71573 0 0 6.71573 0 15C0 23.2843 6.71573 30 15 30Z" fill="#004BFE"/>
<path fill-rule="evenodd" clip-rule="evenodd" d="M8.69995 18.6892V21.5016H11.5124L19.8073 13.2068L16.9948 10.3943L8.69995 18.6892ZM21.9822 11.0318C22.2747 10.7393 22.2747 10.2668 21.9822 9.97434L20.2272 8.21937C19.9347 7.92688 19.4623 7.92688 19.1698 8.21937L17.7973 9.59185L20.6097 12.4043L21.9822 11.0318H21.9822Z" fill="white"/>
</svg>
