<svg width="17" height="17" viewBox="0 0 17 17" fill="none" xmlns="http://www.w3.org/2000/svg">
<path d="M11.118 16.068H5.88399C5.22734 16.0573 4.6011 15.7894 4.13982 15.3219C3.67853 14.8545 3.419 14.2247 3.41699 13.568L2.59399 4H14.482L13.66 13.563C13.655 14.2322 13.3844 14.8721 12.9077 15.3418C12.431 15.8116 11.7872 16.0728 11.118 16.068V16.068Z" stroke="#D97474" stroke-miterlimit="10"/>
<path d="M6.4519 7.03613V13.0321" stroke="#D97474" stroke-miterlimit="10" stroke-linecap="round"/>
<path d="M10.551 7.03613V13.0321" stroke="#D97474" stroke-miterlimit="10" stroke-linecap="round"/>
<path d="M3.58098 4C3.55014 3.63659 3.59125 3.27066 3.70194 2.92314C3.81263 2.57562 3.99075 2.25334 4.22609 1.97471C4.46144 1.69609 4.7494 1.46658 5.07352 1.29934C5.39763 1.13209 5.75153 1.03037 6.11498 1H10.96C11.6811 1.07856 12.3426 1.43676 12.8026 1.99766C13.2625 2.55857 13.4842 3.27747 13.42 4H3.58098Z" stroke="#D97474" stroke-miterlimit="10"/>
<path d="M1 4H16" stroke="#D97474" stroke-miterlimit="10" stroke-linecap="round"/>
</svg>
