<svg width="23" height="21" viewBox="0 0 23 21" fill="none" xmlns="http://www.w3.org/2000/svg">
<path d="M11.0112 18.6365C15.8566 15.3147 18.3978 12.2928 19.44 9.76366C21.3969 5.01291 18.0649 2 14.7786 2C13.3764 2 11.982 2.54898 11.0112 3.74559C10.0402 2.54873 8.6463 2 7.24381 2C3.95779 2 0.62561 5.01333 2.58241 9.76366C3.62459 12.2928 6.1658 15.3147 11.0112 18.6365ZM11.0112 20.6365C10.6161 20.6365 10.2211 20.5197 9.88032 20.2861C5.1406 17.0367 2.06308 13.7529 0.733249 10.5256C-0.372551 7.84119 -0.223561 5.23099 1.15268 3.17563C2.46428 1.21683 4.79826 0 7.24381 0C8.61396 0 9.91588 0.385814 11.0112 1.09276C12.1065 0.385817 13.4084 0 14.7786 0C17.2243 0 19.5583 1.21678 20.8699 3.17549C22.2461 5.23077 22.395 7.84102 21.2892 10.5254C19.9593 13.7529 16.8818 17.0367 12.1421 20.2861C11.8013 20.5197 11.4062 20.6365 11.0112 20.6365Z" fill="#004CFF"/>
</svg>
