<svg width="14" height="16" viewBox="0 0 14 16" fill="none" xmlns="http://www.w3.org/2000/svg">
<g clip-path="url(#clip0_0_6784)">
<path d="M1.65848 3.93945H12.0832C12.7375 3.93945 13.2678 4.46721 13.2678 5.11823L13.7417 14.0769C13.7417 14.7279 13.2113 15.2557 12.5571 15.2557H1.18463C0.530376 15.2557 0 14.7279 0 14.0769L0.473851 5.11823C0.473851 4.46721 1.00423 3.93945 1.65848 3.93945Z" fill="#004CFF"/>
<path d="M3.35803 6.51819V3.16992C3.35803 1.85501 4.4165 0.789062 5.7222 0.789063H7.87353C9.17922 0.789063 10.2377 1.85501 10.2377 3.16992V6.51819" stroke="white" stroke-width="2" stroke-linecap="round"/>
<path d="M3.35803 3.62343V3.16992C3.35803 1.85501 4.4165 0.789062 5.7222 0.789063H7.87353C9.17922 0.789063 10.2377 1.85501 10.2377 3.16992V3.62343" stroke="#004CFF" stroke-width="2" stroke-linecap="round"/>
</g>
<defs>
<clipPath id="clip0_0_6784">
<rect width="13.7417" height="14.4662" fill="white" transform="translate(0 0.789062)"/>
</clipPath>
</defs>
</svg>
