<svg width="47" height="40" viewBox="0 0 47 40" fill="none" xmlns="http://www.w3.org/2000/svg">
<rect width="47" height="40" rx="11" fill="#F9F9F9"/>
<path d="M35.6972 20.0095C36.6656 17.6586 36.6843 15.6587 36.1438 14.0676C35.6023 12.4732 34.4843 11.2445 33.1004 10.4633C30.3103 8.88842 26.5459 9.17377 24.3883 11.8332L24 12.3118L23.6117 11.8332C21.4541 9.17377 17.6896 8.88842 14.8996 10.4633C13.5157 11.2445 12.3977 12.4732 11.8562 14.0676C11.3157 15.6587 11.3344 17.6586 12.3028 20.0095H35.6972ZM35.6972 20.0095C34.2658 23.4831 30.7655 27.7054 24 32.3928C17.2345 27.7054 13.7342 23.4832 12.3028 20.0095L35.6972 20.0095Z" stroke="#202020"/>
</svg>
