<svg width="22" height="24" viewBox="0 0 22 24" fill="none" xmlns="http://www.w3.org/2000/svg">
<path d="M14.3457 4.67287C14.3457 6.70133 12.7013 8.34573 10.6729 8.34573C8.6444 8.34573 7 6.70133 7 4.67287C7 2.6444 8.6444 1 10.6729 1C12.7013 1 14.3457 2.6444 14.3457 4.67287Z" stroke="#004CFF" stroke-width="2"/>
<g clip-path="url(#clip0_2_5449)">
<path d="M20.921 23.0643V18.6733C20.879 17.3937 20.331 16.183 19.3974 15.307C18.4637 14.4309 17.2207 13.961 15.941 14.0003H5.98C4.7003 13.961 3.45725 14.4309 2.52362 15.307C1.58999 16.183 1.04204 17.3937 1 18.6733V23.0643" stroke="#004CFF" stroke-width="2"/>
</g>
<defs>
<clipPath id="clip0_2_5449">
<rect width="21.921" height="10.064" fill="white" transform="translate(0 13)"/>
</clipPath>
</defs>
</svg>
