<svg width="17" height="17" viewBox="0 0 17 17" fill="none" xmlns="http://www.w3.org/2000/svg">
<g clip-path="url(#clip0_2_6842)">
<path d="M10.75 8.5C10.75 8.94501 10.618 9.38002 10.3708 9.75003C10.1236 10.12 9.77217 10.4084 9.36104 10.5787C8.94991 10.749 8.4975 10.7936 8.06105 10.7068C7.62459 10.6199 7.22368 10.4057 6.90901 10.091C6.59434 9.77632 6.38005 9.37541 6.29323 8.93895C6.20642 8.5025 6.25098 8.0501 6.42127 7.63896C6.59157 7.22783 6.87996 6.87643 7.24997 6.62919C7.61998 6.38196 8.05499 6.25 8.5 6.25C9.09674 6.25 9.66903 6.48705 10.091 6.90901C10.5129 7.33097 10.75 7.90326 10.75 8.5Z" stroke="#004BFE" stroke-linecap="round" stroke-linejoin="round"/>
<path d="M13.8821 10.6819C13.7852 10.9013 13.7562 11.1448 13.799 11.3807C13.8418 11.6167 13.9543 11.8345 14.1221 12.0059L14.1661 12.0499C14.439 12.3229 14.5923 12.693 14.5923 13.0789C14.5923 13.4649 14.439 13.835 14.1661 14.1079C13.8931 14.3809 13.523 14.5342 13.1371 14.5342C12.7511 14.5342 12.381 14.3809 12.1081 14.1079L12.0641 14.0639C11.894 13.8995 11.6794 13.7885 11.447 13.7447C11.2145 13.701 10.9743 13.7263 10.756 13.8176C10.5378 13.9089 10.3511 14.0621 10.219 14.2584C10.087 14.4547 10.0154 14.6854 10.0131 14.9219V15.0459C10.0031 15.4251 9.84551 15.7854 9.57382 16.05C9.30213 16.3147 8.93784 16.4628 8.55856 16.4628C8.17927 16.4628 7.81498 16.3147 7.54329 16.05C7.2716 15.7854 7.114 15.4251 7.10406 15.0459V14.9799C7.09882 14.739 7.02114 14.5051 6.88112 14.3089C6.7411 14.1127 6.54524 13.9632 6.31906 13.8799C6.09965 13.7831 5.85625 13.7541 5.62025 13.7969C5.38425 13.8397 5.16649 13.9522 4.99506 14.1199L4.95106 14.1639C4.67815 14.4369 4.30801 14.5902 3.92206 14.5902C3.53611 14.5902 3.16596 14.4369 2.89305 14.1639C2.62015 13.891 2.46683 13.5209 2.46683 13.1349C2.46683 12.749 2.62015 12.3789 2.89305 12.1059L2.93706 12.0619C3.10149 11.8919 3.21246 11.6773 3.25625 11.4448C3.30004 11.2124 3.27472 10.9722 3.18342 10.7539C3.09212 10.5357 2.93886 10.349 2.74258 10.2169C2.54629 10.0849 2.31561 10.0133 2.07906 10.0109H1.95506C1.76084 10.016 1.56757 9.98218 1.38665 9.91138C1.20573 9.84057 1.04082 9.73425 0.901648 9.59868C0.76248 9.46312 0.651871 9.30105 0.576348 9.12205C0.500824 8.94304 0.461914 8.75073 0.461914 8.55645C0.461914 8.36216 0.500824 8.16985 0.576348 7.99084C0.651871 7.81184 0.76248 7.64977 0.901648 7.51421C1.04082 7.37864 1.20573 7.27232 1.38665 7.20151C1.56757 7.13071 1.76084 7.09685 1.95506 7.10194H2.02006C2.26104 7.09671 2.49486 7.01902 2.69106 6.87901C2.88726 6.73899 3.03675 6.54313 3.12006 6.31694C3.21695 6.09754 3.24587 5.85414 3.20309 5.61814C3.16031 5.38214 3.04779 5.16438 2.88006 4.99294L2.83606 4.94894C2.69345 4.81562 2.57913 4.65496 2.49991 4.47654C2.42068 4.29812 2.37818 4.10557 2.37492 3.91038C2.37166 3.71518 2.40771 3.52133 2.48094 3.34036C2.55416 3.15939 2.66305 2.99501 2.80113 2.857C2.9392 2.71899 3.10364 2.61018 3.28464 2.53704C3.46565 2.46391 3.65952 2.42795 3.85471 2.4313C4.04991 2.43466 4.24243 2.47726 4.42081 2.55657C4.5992 2.63588 4.7598 2.75027 4.89306 2.89294L4.93706 2.93694C5.10849 3.10468 5.32625 3.2172 5.56225 3.25998C5.79825 3.30276 6.04165 3.27384 6.26106 3.17694H6.31906C6.53439 3.08459 6.71798 2.93121 6.84717 2.73574C6.97636 2.54027 7.0455 2.31125 7.04605 2.07694V1.95494C7.056 1.57579 7.2136 1.2155 7.48529 0.950848C7.75698 0.686191 8.12127 0.538086 8.50056 0.538086C8.87984 0.538086 9.24413 0.686191 9.51582 0.950848C9.78751 1.2155 9.94511 1.57579 9.95506 1.95494V2.01994C9.95738 2.2565 10.029 2.48718 10.161 2.68346C10.2931 2.87975 10.4798 3.03301 10.698 3.12431C10.9163 3.21561 11.1565 3.24093 11.389 3.19714C11.6214 3.15335 11.836 3.04238 12.0061 2.87794L12.0501 2.83394C12.1852 2.69881 12.3456 2.59162 12.5222 2.51849C12.6987 2.44536 12.888 2.40772 13.0791 2.40772C13.2702 2.40772 13.4594 2.44536 13.6359 2.51849C13.8125 2.59162 13.9729 2.69881 14.1081 2.83394C14.2432 2.96908 14.3504 3.1295 14.4235 3.30605C14.4966 3.48261 14.5343 3.67184 14.5343 3.86294C14.5343 4.05405 14.4966 4.24328 14.4235 4.41984C14.3504 4.59639 14.2432 4.75681 14.1081 4.89194L14.0641 4.93594C13.8963 5.10738 13.7838 5.32514 13.741 5.56114C13.6982 5.79714 13.7272 6.04054 13.8241 6.25994V6.31794C13.9164 6.53328 14.0698 6.71687 14.2653 6.84606C14.4607 6.97525 14.6897 7.04439 14.9241 7.04494H15.0481C15.4272 7.05489 15.7875 7.21249 16.0522 7.48418C16.3168 7.75587 16.4649 8.12016 16.4649 8.49944C16.4649 8.87873 16.3168 9.24302 16.0522 9.51471C15.7875 9.7864 15.4272 9.944 15.0481 9.95395H14.9801C14.7457 9.9545 14.5167 10.0236 14.3213 10.1528C14.1258 10.282 13.9724 10.4656 13.8801 10.6809L13.8821 10.6819Z" stroke="#004BFE" stroke-linecap="round" stroke-linejoin="round"/>
</g>
<defs>
<clipPath id="clip0_2_6842">
<rect width="17" height="17" fill="white"/>
</clipPath>
</defs>
</svg>
