<svg width="21" height="16" viewBox="0 0 21 16" fill="none" xmlns="http://www.w3.org/2000/svg">
<mask id="path-1-inside-1_2258_176" fill="white">
<path fill-rule="evenodd" clip-rule="evenodd" d="M14.9995 1H6.00049C4.34364 1 3.00049 2.34315 3.00049 4V6.7476C2.7263 6.52996 2.37901 6.3999 2.00125 6.3999H2.00049V4C2.00049 1.79086 3.79135 0 6.00049 0H14.9995C17.2086 0 18.9995 1.79086 18.9995 4V6.3999C18.6214 6.39997 18.2738 6.53035 17.9995 6.74843V4C17.9995 2.34315 16.6564 1 14.9995 1ZM17.9995 9.25137V12C17.9995 13.6569 16.6564 15 14.9995 15H6.00049C4.34363 15 3.00049 13.6569 3.00049 12V9.2522C2.7263 9.46985 2.37901 9.59991 2.00125 9.59991H2.00049V12C2.00049 14.2092 3.79135 16 6.00049 16H14.9995C17.2086 16 18.9995 14.2092 18.9995 12V9.59991C18.6214 9.59984 18.2738 9.46946 17.9995 9.25137ZM18.9995 7.3999V8.59991C18.6623 8.59975 18.3945 8.32809 18.3945 7.9999C18.3945 7.67171 18.6623 7.40005 18.9995 7.3999ZM2.00049 7.3999V8.59991H2.00125C2.33862 8.59991 2.60651 8.32819 2.60651 7.9999C2.60651 7.67162 2.33862 7.3999 2.00125 7.3999L2.00049 7.3999Z"/>
</mask>
<path d="M3.00049 6.7476L2.37878 7.53085L4.00049 8.81809V6.7476H3.00049ZM2.00049 6.3999H1.00049V7.3999H2.00049V6.3999ZM18.9995 6.3999L18.9997 7.3999L19.9995 7.39973V6.3999H18.9995ZM17.9995 6.74843H16.9995V8.82112L18.6219 7.53117L17.9995 6.74843ZM17.9995 9.25137L18.6219 8.46864L16.9995 7.17869V9.25137H17.9995ZM3.00049 9.2522H4.00049V7.18172L2.37878 8.46896L3.00049 9.2522ZM2.00049 9.59991V8.59991H1.00049V9.59991H2.00049ZM18.9995 9.59991H19.9995V8.60008L18.9997 8.59991L18.9995 9.59991ZM18.9995 8.59991L18.9991 9.59991L19.9995 9.60036V8.59991H18.9995ZM18.9995 7.3999H19.9995V6.39945L18.9991 6.3999L18.9995 7.3999ZM2.00049 8.59991H1.00049V9.59991H2.00049V8.59991ZM2.00049 7.3999L1.99987 6.3999L1.00049 6.40053V7.3999H2.00049ZM2.00125 7.3999V6.3999H2.00063L2.00125 7.3999ZM6.00049 2H14.9995V0H6.00049V2ZM4.00049 4C4.00049 2.89543 4.89592 2 6.00049 2V0C3.79135 0 2.00049 1.79086 2.00049 4H4.00049ZM4.00049 6.7476V4H2.00049V6.7476H4.00049ZM2.00125 7.3999C2.14556 7.3999 2.27529 7.44871 2.37878 7.53085L3.6222 5.96435C3.1773 5.61121 2.61247 5.3999 2.00125 5.3999V7.3999ZM2.00049 7.3999H2.00125V5.3999H2.00049V7.3999ZM1.00049 4V6.3999H3.00049V4H1.00049ZM6.00049 -1C3.23906 -1 1.00049 1.23858 1.00049 4H3.00049C3.00049 2.34315 4.34363 1 6.00049 1V-1ZM14.9995 -1H6.00049V1H14.9995V-1ZM19.9995 4C19.9995 1.23858 17.7609 -1 14.9995 -1V1C16.6564 1 17.9995 2.34315 17.9995 4H19.9995ZM19.9995 6.3999V4H17.9995V6.3999H19.9995ZM18.6219 7.53117C18.7254 7.44885 18.8552 7.39993 18.9997 7.3999L18.9993 5.3999C18.3875 5.40001 17.8222 5.61184 17.3771 5.9657L18.6219 7.53117ZM16.9995 4V6.74843H18.9995V4H16.9995ZM14.9995 2C16.1041 2 16.9995 2.89543 16.9995 4H18.9995C18.9995 1.79086 17.2086 0 14.9995 0V2ZM16.9995 9.25137V12H18.9995V9.25137H16.9995ZM16.9995 12C16.9995 13.1046 16.1041 14 14.9995 14V16C17.2086 16 18.9995 14.2092 18.9995 12H16.9995ZM14.9995 14H6.00049V16H14.9995V14ZM6.00049 14C4.89592 14 4.00049 13.1046 4.00049 12H2.00049C2.00049 14.2092 3.79135 16 6.00049 16V14ZM4.00049 12V9.2522H2.00049V12H4.00049ZM2.37878 8.46896C2.27529 8.5511 2.14556 8.59991 2.00125 8.59991V10.5999C2.61247 10.5999 3.1773 10.3886 3.6222 10.0355L2.37878 8.46896ZM2.00125 8.59991H2.00049V10.5999H2.00125V8.59991ZM1.00049 9.59991V12H3.00049V9.59991H1.00049ZM1.00049 12C1.00049 14.7614 3.23906 17 6.00049 17V15C4.34363 15 3.00049 13.6569 3.00049 12H1.00049ZM6.00049 17H14.9995V15H6.00049V17ZM14.9995 17C17.7609 17 19.9995 14.7614 19.9995 12H17.9995C17.9995 13.6569 16.6564 15 14.9995 15V17ZM19.9995 12V9.59991H17.9995V12H19.9995ZM18.9997 8.59991C18.8552 8.59988 18.7254 8.55096 18.6219 8.46864L17.3771 10.0341C17.8222 10.388 18.3875 10.5998 18.9993 10.5999L18.9997 8.59991ZM19.9995 8.59991V7.3999H17.9995V8.59991H19.9995ZM17.3945 7.9999C17.3945 8.88177 18.1113 9.59951 18.9991 9.59991L19 7.59991C19.2133 7.6 19.3945 7.77442 19.3945 7.9999H17.3945ZM18.9991 6.3999C18.1113 6.4003 17.3945 7.11804 17.3945 7.9999H19.3945C19.3945 8.22538 19.2133 8.39981 19 8.3999L18.9991 6.3999ZM3.00049 8.59991V7.3999H1.00049V8.59991H3.00049ZM2.00125 7.59991H2.00049V9.59991H2.00125V7.59991ZM1.60651 7.9999C1.60651 7.77436 1.78788 7.59991 2.00125 7.59991V9.59991C2.88937 9.59991 3.60651 8.88201 3.60651 7.9999H1.60651ZM2.00125 8.3999C1.78788 8.3999 1.60651 8.22545 1.60651 7.9999H3.60651C3.60651 7.1178 2.88937 6.3999 2.00125 6.3999V8.3999ZM2.00111 8.3999H2.00188L2.00063 6.3999L1.99987 6.3999L2.00111 8.3999Z" fill="white" mask="url(#path-1-inside-1_2258_176)"/>
<path d="M4 8H17" stroke="white" stroke-dasharray="1"/>
</svg>
